<svg>
    <path
        d="M 12 3.3444293 L 8.5720109 5.3040082 L 12 7.2615489 L 15.427989 5.3040082 L 12 3.3444293 z M 17.165421 4.9004755 A 0.625 0.625 0 0 1 17.313179 5.3040082 A 0.625 0.625 0 0 0 17.165421 4.9004755 z M 7.9371603 6.3800951 L 7.9371603 10.297215 L 11.37534 12.261889 L 11.37534 8.344769 L 7.9371603 6.3800951 z M 16.06284 6.3800951 L 12.62466 8.344769 L 12.62466 12.261889 L 16.06284 10.297215 L 16.06284 6.3800951 z M 7.3125 11.380435 L 3.8845109 13.337976 L 7.3125 15.297554 L 10.740489 13.337976 L 7.3125 11.380435 z M 16.6875 11.380435 L 13.259511 13.337976 L 13.259511 13.338995 L 16.6875 15.296535 L 20.115489 13.337976 L 16.6875 11.380435 z M 3.2496603 14.416101 L 3.2496603 18.334239 L 6.6868207 20.295856 L 6.6868207 16.379755 L 3.2496603 14.416101 z M 11.37534 14.416101 L 7.9371603 16.379755 L 7.9371603 20.296875 L 11.37534 18.334239 L 11.37534 14.416101 z M 12.62466 14.416101 L 12.62466 18.334239 L 16.06284 20.296875 L 16.06284 16.379755 L 12.62466 14.416101 z M 20.75034 14.416101 L 17.31216 16.379755 L 17.31216 20.296875 L 20.75034 18.334239 L 20.75034 14.416101 z M 2.0380435 18.909986 A 0.624 0.624 0 0 0 2.1480978 19.098505 A 0.624 0.624 0 0 1 2.0380435 18.909986 z M 7.0016984 21.91712 A 0.625 0.625 0 0 0 7.6222826 21.91712 A 0.625 0.625 0 0 1 7.0016984 21.91712 z " />

</svg>