<svg width="46" height="46" fill="currentColor" viewBox="0 0 24 24"
    xmlns="http://www.w3.org/2000/svg">
    <path fill-rule="evenodd"
        d="M1.6 1.55H0V.05h1.6v1.5Zm6.4 0H6.4V.05H8v1.5Zm6.4 0h-1.6V.05h1.6v1.5Zm-9.55 3.3h17.5v6.35h-1.5V6.35H6.35v14.5h4.85v1.5H4.85V4.85ZM1.6 7.95H0v-1.5h1.6v1.5Zm9.87 3.52a.75.75 0 0 1 .736-.191l11.2 3.2a.75.75 0 0 1 .09 1.41l-5.325 2.282-2.282 5.325a.75.75 0 0 1-1.41-.09l-3.2-11.2a.75.75 0 0 1 .19-.736Zm1.622 1.622 2.25 7.874 1.569-3.661a.75.75 0 0 1 .394-.394l3.66-1.57-7.873-2.249ZM1.6 14.35H0v-1.5h1.6v1.5Z"
        clip-rule="evenodd"></path>
</svg>