<svg xmlns="http://www.w3.org/2000/svg">
    <symbol id="ListIcon" viewBox="0 0 25.904 25.904">
        <path d="M9.012 12h10v2h-10z" />
        <path
            d="M13.022 22H3.012c-.551 0-1-.449-1-1V4h20v8.435a3.04 3.04 0 0 1 1.343-.322c.224 0 .443.028.657.075V3a3 3 0 0 0-3-3h-18a3 3 0 0 0-3 3v18c0 1.656 1.344 3 3 3h9.425l.585-2z" />
        <path
            d="M9.012 8h10v2h-10zM9.012 18h7.096l2.01-2H9.012zM5.012 12h2v2h-2zM5.012 8h2v2h-2zM5.012 16h2v2h-2z" />
        <g>
            <path
                d="m25.576 15.934-1.517-1.52a1.062 1.062 0 0 0-1.507-.009l-1.22 1.228 3.03 3.043 1.221-1.229a1.071 1.071 0 0 0-.007-1.513zM15.357 21.502a.431.431 0 0 0-.15.213L14.15 25.33a.448.448 0 0 0 .555.555l3.602-1.062a.433.433 0 0 0 .204-.138l4.939-4.915-3.163-3.175-4.93 4.907zm.479 3.116-.422-.425.599-2.047 1.532.316.303 1.562-2.012.594z" />
        </g>
    </symbol>
    <symbol id="CargoBox">
        <path d="M0 2.175l10.231 3.848L20 2.282 10.018 0z" />
        <path d="M10.231 6.023V19.98L20 12.513V2.282z" />
        <path d="M0 2.175l10.231 3.848V19.98L0 12.606z" />
    </symbol>
    <symbol id="Boxes" viewBox="0 0 24 24">
        <path
            d="M 12 3.3444293 L 8.5720109 5.3040082 L 12 7.2615489 L 15.427989 5.3040082 L 12 3.3444293 z M 17.165421 4.9004755 A 0.625 0.625 0 0 1 17.313179 5.3040082 A 0.625 0.625 0 0 0 17.165421 4.9004755 z M 7.9371603 6.3800951 L 7.9371603 10.297215 L 11.37534 12.261889 L 11.37534 8.344769 L 7.9371603 6.3800951 z M 16.06284 6.3800951 L 12.62466 8.344769 L 12.62466 12.261889 L 16.06284 10.297215 L 16.06284 6.3800951 z M 7.3125 11.380435 L 3.8845109 13.337976 L 7.3125 15.297554 L 10.740489 13.337976 L 7.3125 11.380435 z M 16.6875 11.380435 L 13.259511 13.337976 L 13.259511 13.338995 L 16.6875 15.296535 L 20.115489 13.337976 L 16.6875 11.380435 z M 3.2496603 14.416101 L 3.2496603 18.334239 L 6.6868207 20.295856 L 6.6868207 16.379755 L 3.2496603 14.416101 z M 11.37534 14.416101 L 7.9371603 16.379755 L 7.9371603 20.296875 L 11.37534 18.334239 L 11.37534 14.416101 z M 12.62466 14.416101 L 12.62466 18.334239 L 16.06284 20.296875 L 16.06284 16.379755 L 12.62466 14.416101 z M 20.75034 14.416101 L 17.31216 16.379755 L 17.31216 20.296875 L 20.75034 18.334239 L 20.75034 14.416101 z M 2.0380435 18.909986 A 0.624 0.624 0 0 0 2.1480978 19.098505 A 0.624 0.624 0 0 1 2.0380435 18.909986 z M 7.0016984 21.91712 A 0.625 0.625 0 0 0 7.6222826 21.91712 A 0.625 0.625 0 0 1 7.0016984 21.91712 z " />
    </symbol>
    <symbol id="Delete" fill="none" stroke-linecap="round" stroke-linejoin="round" stroke-width="2"
        viewBox="0 0 24 24">
        <path d="M4 6h16l-1.58 14.22A2 2 0 0 1 16.432 22H7.568a2 2 0 0 1-1.988-1.78L4 6z" />
        <path d="M7.345 3.147A2 2 0 0 1 9.154 2h5.692a2 2 0 0 1 1.81 1.147L18 6H6l1.345-2.853z" />
        <path d="M2 6h20" />
    </symbol>
    <symbol id="Clear" fill="none" stroke-linecap="round"
        stroke-linejoin="round" stroke-width="2" viewBox="0 0 24 24">
        <path d="M12 2a10 10 0 1 0 0 20 10 10 0 1 0 0-20z" />
        <path d="m15 9-6 6" />
        <path d="m9 9 6 6" />
    </symbol>
    <symbol id="Confirm" fill="none" stroke-linecap="round" stroke-linejoin="round" stroke-width="2"
        viewBox="0 0 24 24">
        <path d="m4 12 6 6L20 6" />
    </symbol>
    <symbol id="Download" fill="none" stroke-linecap="round" stroke-linejoin="round"
        stroke-width="2"
        viewBox="0 0 24 24">
        <path d="M21 15v4a2 2 0 0 1-2 2H5a2 2 0 0 1-2-2v-4" />
        <path d="m7 10 5 5 5-5" />
        <path d="M12 15V3" />
    </symbol>
    <symbol id="Plus" fill="none" stroke-linecap="round" stroke-linejoin="round" stroke-width="2"
        viewBox="0 0 24 24">
        <path d="M12 2a10 10 0 1 0 0 20 10 10 0 1 0 0-20z" />
        <path d="M12 8v8" />
        <path d="M8 12h8" />
    </symbol>
    <symbol id="RocketShip" stroke-linecap="round" stroke-linejoin="round"
        stroke-width="2" viewBox="0 0 297 297">
        <path
            d="M147.655,71.797c-17.947,0-32.548,14.601-32.548,32.548c0,17.947,14.601,32.548,32.548,32.548
        c17.947,0,32.548-14.601,32.548-32.548C180.203,86.398,165.603,71.797,147.655,71.797z M147.655,121.576
        c-9.501,0-17.231-7.73-17.231-17.231c0-9.501,7.73-17.231,17.231-17.231c9.501,0,17.231,7.73,17.231,17.231
        C164.886,113.846,157.156,121.576,147.655,121.576z" />
        <path
            d="M245.437,183.301c-9.288-14.255-20.467-20.807-26.304-23.446c3.134-20.065,4.186-40.095,1.127-57.195
        C209.149,40.542,155.333,3.222,153.048,1.663c-3.253-2.217-7.533-2.217-10.786,0c-2.285,1.558-56.101,38.879-67.211,100.996
        c-3.096,17.312-1.979,37.627,1.246,57.941c-6.122,3.043-16.221,9.637-24.734,22.7c-16,24.555-18.687,59.459-7.985,103.742
        c0.74,3.065,2.943,5.569,5.888,6.695c1.107,0.423,2.264,0.63,3.416,0.63c1.916,0,3.815-0.575,5.436-1.692l46.663-32.181
        c1.24,3.104,2.056,5.039,2.273,5.549c1.502,3.534,4.971,5.828,8.81,5.828h22.018v15.556c0,5.287,4.286,9.573,9.573,9.573
        s9.573-4.286,9.573-9.573v-15.556h22.018c3.839,0,7.308-2.294,8.81-5.828c0.237-0.558,1.193-2.828,2.637-6.464l47.989,33.096
        c1.621,1.117,3.521,1.692,5.436,1.692c1.152,0,2.31-0.208,3.416-0.63c2.945-1.126,5.147-3.629,5.888-6.695
        C264.123,242.76,261.437,207.856,245.437,183.301z M147.655,21.617c6.194,5.032,16.822,14.516,27.123,27.684h-54.246
        C130.835,36.13,141.464,26.647,147.655,21.617z M59.265,268.765c-10.448-57.725,9.367-80.269,20.823-88.232
        c5.157,23.501,12.272,45.624,17.937,61.501L59.265,268.765z M172.791,252.725h-15.563V176.86c0-5.287-4.286-9.573-9.573-9.573
        c-5.287,0-9.573,4.286-9.573,9.573v75.865h-15.567c-8.574-21.734-37.118-99.175-28.618-146.695
        c2.785-15.569,8.839-29.477,16.051-41.413h75.413c7.212,11.936,13.267,25.844,16.051,41.413
        C209.901,153.495,181.364,230.978,172.791,252.725z M237.736,268.765l-40.116-27.666c5.688-16.028,12.744-38.143,17.816-61.546
        C226.546,186.558,248.648,208.471,237.736,268.765z" />
    </symbol>
    <symbol id="Refinery" stroke-linecap="round" stroke-linejoin="round"
        stroke-width="1" viewBox="0 0 100 80">
        <path
            d="M 95.148915,67.702016 V 52.467599 h -3.755926 v -5.543683 c 0,-4.876148 -3.648053,-8.906782 -8.38969,-9.564057 V 37.18188 c 0,-5.9554 -4.892071,-10.800546 -10.905651,-10.800546 h -0.362351 c -6.012678,0 -10.905652,4.845146 -10.905652,10.800546 V 56.726837 H 55.505636 V 35.947174 c 0,-1.356703 -0.731458,-2.541225 -1.823239,-3.196716 1.275096,-0.371793 2.206757,-1.538029 2.206757,-2.921272 0,-1.682553 -1.377562,-3.04684 -3.076713,-3.04684 H 50.339493 V 23.94382 h -3.828442 v 2.838526 h -2.473623 c -1.699152,0 -3.076263,1.364064 -3.076263,3.04684 0,1.383243 0.931661,2.549479 2.206758,2.921272 -1.091782,0.655713 -1.823689,1.840012 -1.823689,3.196716 v 20.779663 h -5.179656 v -19.09064 c 0,-0.994279 -0.813656,-1.800091 -1.817384,-1.800091 H 30.651172 V 16.300513 c 0,-3.575202 -2.936864,-6.4837617 -6.546633,-6.4837617 V 9.53417 C 24.104539,4.2688317 19.794391,0 14.477586,0 9.1607833,0 4.8508597,4.2690546 4.8508597,9.5343938 V 67.702244 H 0 V 80 H 100 V 67.702244 H 95.148915 Z M 64.465538,37.18188 c 0,-3.970192 3.260931,-7.200365 7.269759,-7.200365 h 0.362351 c 4.009278,0 7.270658,3.230173 7.270658,7.200365 v 0.347706 c -4.292131,1.013679 -7.483924,4.83377 -7.483924,9.394998 v 5.543459 h -3.755476 v 4.259466 H 64.464862 V 37.182103 h 6.76e-4 z m 3.663817,23.145143 v 7.374992 h -3.664042 v -7.374992 z m -7.299259,0 v 7.374992 h -5.32401 V 60.327023 Z M 32.529811,39.436511 v 19.090638 c 0,0.994282 0.813657,1.800093 1.817383,1.800093 h 6.99704 v 7.375219 H 30.651172 V 39.436511 Z M 24.104539,13.417157 c 1.605468,0 2.911867,1.293585 2.911867,2.883579 v 19.535593 h -2.911867 z m 0,26.019354 h 2.911867 v 28.265505 h -2.911867 z" />
    </symbol>
    <symbol id="Pallet" stroke-linecap="round" stroke-linejoin="round" stroke-width="1"
        viewBox="0 0 60 60">
        <path
            d="m 59.955,50.7 -5,-16 A 1,1 0 0 0 54,34 H 53 V 11 c 0,-0.013 -0.007,-0.024 -0.008,-0.038 a 0.988,0.988 0 0 0 -0.063,-0.334 l -4,-9.9999997 A 1,1 0 0 0 48,3e-7 H 12 a 1,1 0 0 0 -0.929,0.628 L 7.071,10.628 A 0.988,0.988 0 0 0 7.008,10.962 C 7.008,10.976 7,10.987 7,11 V 34 H 6 a 1,1 0 0 0 -0.955,0.7 l -5,16 A 1.018,1.018 0 0 0 0.038,50.811 0.913,0.913 0 0 0 0,51 v 8 a 1,1 0 0 0 1,1 h 6 a 1,1 0 0 0 1,-1 v -3 h 18 v 3 a 1,1 0 0 0 1,1 h 6 a 1,1 0 0 0 1,-1 v -3 h 18 v 3 a 1,1 0 0 0 1,1 h 6 a 1,1 0 0 0 1,-1 V 51 A 0.913,0.913 0 0 0 59.962,50.813 1.018,1.018 0 0 0 59.955,50.7 Z M 33,54 H 2 v -2 h 56 v 2 z M 7,42 H 4.86 L 5.485,40 H 7 Z m 0,2 v 2 H 3.61 L 4.235,44 Z M 55.14,42 H 53 v -2 h 1.515 z M 53,48 h 4.015 l 0.625,2 H 53 Z m 0,-2 v -2 h 2.765 l 0.625,2 z m -2,4 H 31 V 32 H 51 Z M 51,30 H 31 V 12 H 51 Z M 29,30 H 9 V 12 H 29 Z M 9,32 H 29 V 50 H 9 Z m 44.265,4 0.625,2 H 53 V 36 Z M 31,10 V 7.0000003 H 49.323 L 50.523,10 Z M 48.523,5.0000003 H 31 v -3 h 16.323 z m -35.846,-3 H 29 v 3 H 11.477 Z m -2,5 H 29 V 10 H 9.477 Z M 7,36 v 2 H 6.11 L 6.735,36 Z M 3,47.953 V 48 h 4 v 2 H 2.36 Z M 6,58 H 2 v -2 h 4 z m 26,0 h -4 v -2 h 4 z m 26,0 h -4 v -2 h 4 z" />
        <path
            d="m 12,21 h 6 a 1,1 0 0 0 1,-1 v -5 a 1,1 0 0 0 -1,-1 h -6 a 1,1 0 0 0 -1,1 v 5 a 1,1 0 0 0 1,1 z m 1,-5 h 4 v 3 h -4 z" />
        <path
            d="m 34,21 h 6 a 1,1 0 0 0 1,-1 v -5 a 1,1 0 0 0 -1,-1 h -6 a 1,1 0 0 0 -1,1 v 5 a 1,1 0 0 0 1,1 z m 1,-5 h 4 v 3 h -4 z" />
        <path
            d="m 18,34 h -6 a 1,1 0 0 0 -1,1 v 5 a 1,1 0 0 0 1,1 h 6 a 1,1 0 0 0 1,-1 v -5 a 1,1 0 0 0 -1,-1 z m -1,5 h -4 v -3 h 4 z" />
        <path
            d="m 34,41 h 6 a 1,1 0 0 0 1,-1 v -5 a 1,1 0 0 0 -1,-1 h -6 a 1,1 0 0 0 -1,1 v 5 a 1,1 0 0 0 1,1 z m 1,-5 h 4 v 3 h -4 z" />
    </symbol>
</svg>