<svg xmlns="http://www.w3.org/2000/svg">
    <symbol id="ListIcon" viewBox="0 0 25.904 25.904">
        <path d="M9.012 12h10v2h-10z" />
        <path
            d="M13.022 22H3.012c-.551 0-1-.449-1-1V4h20v8.435a3.04 3.04 0 0 1 1.343-.322c.224 0 .443.028.657.075V3a3 3 0 0 0-3-3h-18a3 3 0 0 0-3 3v18c0 1.656 1.344 3 3 3h9.425l.585-2z" />
        <path
            d="M9.012 8h10v2h-10zM9.012 18h7.096l2.01-2H9.012zM5.012 12h2v2h-2zM5.012 8h2v2h-2zM5.012 16h2v2h-2z" />
        <g>
            <path
                d="m25.576 15.934-1.517-1.52a1.062 1.062 0 0 0-1.507-.009l-1.22 1.228 3.03 3.043 1.221-1.229a1.071 1.071 0 0 0-.007-1.513zM15.357 21.502a.431.431 0 0 0-.15.213L14.15 25.33a.448.448 0 0 0 .555.555l3.602-1.062a.433.433 0 0 0 .204-.138l4.939-4.915-3.163-3.175-4.93 4.907zm.479 3.116-.422-.425.599-2.047 1.532.316.303 1.562-2.012.594z" />
        </g>
    </symbol>
    <symbol id="CargoBox">
        <path d="M10.018 0L20 2.282v10.231L10.018 8.2z" />
        <path d="M0 2.175v10.431L10.018 8.2V0z" />
        <path d="M0 12.606l10.231 7.374L20 12.513 10.018 8.2z" />
        <path d="M0 2.175l10.231 3.848L20 2.282 10.018 0z" />
        <path d="M10.231 6.023V19.98L20 12.513V2.282z" />
        <path d="M0 2.175l10.231 3.848V19.98L0 12.606z" />
    </symbol>
    <symbol id="Boxes" viewBox="0 0 24 24">
        <path
            d="M 12 3.3444293 L 8.5720109 5.3040082 L 12 7.2615489 L 15.427989 5.3040082 L 12 3.3444293 z M 17.165421 4.9004755 A 0.625 0.625 0 0 1 17.313179 5.3040082 A 0.625 0.625 0 0 0 17.165421 4.9004755 z M 7.9371603 6.3800951 L 7.9371603 10.297215 L 11.37534 12.261889 L 11.37534 8.344769 L 7.9371603 6.3800951 z M 16.06284 6.3800951 L 12.62466 8.344769 L 12.62466 12.261889 L 16.06284 10.297215 L 16.06284 6.3800951 z M 7.3125 11.380435 L 3.8845109 13.337976 L 7.3125 15.297554 L 10.740489 13.337976 L 7.3125 11.380435 z M 16.6875 11.380435 L 13.259511 13.337976 L 13.259511 13.338995 L 16.6875 15.296535 L 20.115489 13.337976 L 16.6875 11.380435 z M 3.2496603 14.416101 L 3.2496603 18.334239 L 6.6868207 20.295856 L 6.6868207 16.379755 L 3.2496603 14.416101 z M 11.37534 14.416101 L 7.9371603 16.379755 L 7.9371603 20.296875 L 11.37534 18.334239 L 11.37534 14.416101 z M 12.62466 14.416101 L 12.62466 18.334239 L 16.06284 20.296875 L 16.06284 16.379755 L 12.62466 14.416101 z M 20.75034 14.416101 L 17.31216 16.379755 L 17.31216 20.296875 L 20.75034 18.334239 L 20.75034 14.416101 z M 2.0380435 18.909986 A 0.624 0.624 0 0 0 2.1480978 19.098505 A 0.624 0.624 0 0 1 2.0380435 18.909986 z M 7.0016984 21.91712 A 0.625 0.625 0 0 0 7.6222826 21.91712 A 0.625 0.625 0 0 1 7.0016984 21.91712 z " />
    </symbol>
    <symbol id="Delete" fill="none" stroke-linecap="round" stroke-linejoin="round" stroke-width="2"
        viewBox="0 0 24 24">
        <path d="M4 6h16l-1.58 14.22A2 2 0 0 1 16.432 22H7.568a2 2 0 0 1-1.988-1.78L4 6z" />
        <path d="M7.345 3.147A2 2 0 0 1 9.154 2h5.692a2 2 0 0 1 1.81 1.147L18 6H6l1.345-2.853z" />
        <path d="M2 6h20" />
    </symbol>
    <symbol id="Clear" fill="none" stroke-linecap="round"
        stroke-linejoin="round" stroke-width="2" viewBox="0 0 24 24">
        <path d="M12 2a10 10 0 1 0 0 20 10 10 0 1 0 0-20z" />
        <path d="m15 9-6 6" />
        <path d="m9 9 6 6" />
    </symbol>
    <symbol id="Confirm" fill="none" stroke-linecap="round" stroke-linejoin="round" stroke-width="2"
        viewBox="0 0 24 24">
        <path d="m4 12 6 6L20 6" />
    </symbol>
    <symbol id="Download" fill="none" stroke-linecap="round" stroke-linejoin="round"
        stroke-width="2"
        viewBox="0 0 24 24">
        <path d="M21 15v4a2 2 0 0 1-2 2H5a2 2 0 0 1-2-2v-4" />
        <path d="m7 10 5 5 5-5" />
        <path d="M12 15V3" />
    </symbol>
    <symbol id="Plus" fill="none" stroke-linecap="round" stroke-linejoin="round" stroke-width="2"
        viewBox="0 0 24 24">
        <path d="M12 2a10 10 0 1 0 0 20 10 10 0 1 0 0-20z" />
        <path d="M12 8v8" />
        <path d="M8 12h8" />
    </symbol>
</svg>