<?xml version="1.0" encoding="UTF-8" standalone="no"?>
<svg
   fill="#000000"
   version="1.1"
   id="Capa_1"
   width="100"
   height="80"
   viewBox="0 0 100 80"
   xml:space="preserve"
   sodipodi:docname="oil-refinery.svg"
   inkscape:version="1.2.2 (732a01da63, 2022-12-09)"
   xmlns:inkscape="http://www.inkscape.org/namespaces/inkscape"
   xmlns:sodipodi="http://sodipodi.sourceforge.net/DTD/sodipodi-0.dtd"
   xmlns="http://www.w3.org/2000/svg"
   xmlns:svg="http://www.w3.org/2000/svg"><defs
   id="defs125" /><sodipodi:namedview
   id="namedview123"
   pagecolor="#505050"
   bordercolor="#ffffff"
   borderopacity="1"
   inkscape:showpageshadow="0"
   inkscape:pageopacity="0"
   inkscape:pagecheckerboard="1"
   inkscape:deskcolor="#505050"
   showgrid="false"
   showguides="true"
   inkscape:zoom="5.6568543"
   inkscape:cx="22.008699"
   inkscape:cy="45.254834"
   inkscape:window-width="2560"
   inkscape:window-height="1369"
   inkscape:window-x="1912"
   inkscape:window-y="-8"
   inkscape:window-maximized="1"
   inkscape:current-layer="Capa_1" />
	<path
   d="M 95.148915,67.702016 V 52.467599 h -3.755926 v -5.543683 c 0,-4.876148 -3.648053,-8.906782 -8.38969,-9.564057 V 37.18188 c 0,-5.9554 -4.892071,-10.800546 -10.905651,-10.800546 h -0.362351 c -6.012678,0 -10.905652,4.845146 -10.905652,10.800546 V 56.726837 H 55.505636 V 35.947174 c 0,-1.356703 -0.731458,-2.541225 -1.823239,-3.196716 1.275096,-0.371793 2.206757,-1.538029 2.206757,-2.921272 0,-1.682553 -1.377562,-3.04684 -3.076713,-3.04684 H 50.339493 V 23.94382 h -3.828442 v 2.838526 h -2.473623 c -1.699152,0 -3.076263,1.364064 -3.076263,3.04684 0,1.383243 0.931661,2.549479 2.206758,2.921272 -1.091782,0.655713 -1.823689,1.840012 -1.823689,3.196716 v 20.779663 h -5.179656 v -19.09064 c 0,-0.994279 -0.813656,-1.800091 -1.817384,-1.800091 H 30.651172 V 16.300513 c 0,-3.575202 -2.936864,-6.4837617 -6.546633,-6.4837617 V 9.53417 C 24.104539,4.2688317 19.794391,0 14.477586,0 9.1607833,0 4.8508597,4.2690546 4.8508597,9.5343938 V 67.702244 H 0 V 80 H 100 V 67.702244 H 95.148915 Z M 64.465538,37.18188 c 0,-3.970192 3.260931,-7.200365 7.269759,-7.200365 h 0.362351 c 4.009278,0 7.270658,3.230173 7.270658,7.200365 v 0.347706 c -4.292131,1.013679 -7.483924,4.83377 -7.483924,9.394998 v 5.543459 h -3.755476 v 4.259466 H 64.464862 V 37.182103 h 6.76e-4 z m 3.663817,23.145143 v 7.374992 h -3.664042 v -7.374992 z m -7.299259,0 v 7.374992 h -5.32401 V 60.327023 Z M 32.529811,39.436511 v 19.090638 c 0,0.994282 0.813657,1.800093 1.817383,1.800093 h 6.99704 v 7.375219 H 30.651172 V 39.436511 Z M 24.104539,13.417157 c 1.605468,0 2.911867,1.293585 2.911867,2.883579 v 19.535593 h -2.911867 z m 0,26.019354 h 2.911867 v 28.265505 h -2.911867 z"
   id="path120"
   style="stroke-width:0.224114" />
</svg>
