<?xml version="1.0" standalone="no"?>
<!DOCTYPE svg PUBLIC "-//W3C//DTD SVG 20010904//EN"
 "http://www.w3.org/TR/2001/REC-SVG-20010904/DTD/svg10.dtd">
<svg version="1.0" xmlns="http://www.w3.org/2000/svg"
 width="512.000000pt" height="512.000000pt" viewBox="0 0 512.000000 512.000000"
 preserveAspectRatio="xMidYMid meet">

<g transform="translate(0.000000,512.000000) scale(0.100000,-0.100000)"
fill="#e8e6e3" stroke="none">
<path d="M2305 5105 c-263 -58 -455 -237 -525 -490 l-17 -60 -339 -6 c-334 -5
-340 -6 -413 -32 -188 -67 -313 -208 -356 -402 -13 -56 -16 -111 -13 -224 l3
-151 33 -32 32 -33 124 -4 124 -3 7 -72 c3 -39 51 -844 106 -1789 78 -1354
103 -1725 114 -1748 33 -63 -53 -59 1377 -59 1257 0 1304 1 1334 19 17 10 36
32 42 47 7 17 53 746 112 1774 55 960 103 1764 106 1787 l5 41 124 4 c114 3
125 5 149 27 14 13 31 40 37 59 17 51 6 331 -16 402 -52 169 -193 311 -365
366 -46 14 -111 18 -394 23 l-339 6 -17 61 c-65 239 -272 434 -517 488 -92 20
-428 21 -518 1z m506 -235 c123 -38 222 -121 277 -233 18 -35 32 -70 32 -76 0
-8 -151 -11 -560 -11 -441 0 -560 3 -560 13 1 23 41 102 79 152 49 64 132 122
219 152 61 20 85 23 258 23 163 0 201 -3 255 -20z m1254 -580 c123 -60 176
-146 183 -297 l4 -93 -1691 0 -1691 0 0 80 c0 168 87 290 234 326 40 10 369
12 1481 11 l1430 -2 50 -25z m-140 -702 c-6 -90 -195 -3312 -195 -3340 0 -17
-62 -18 -1170 -18 -643 0 -1170 2 -1170 4 0 2 -45 771 -100 1710 -55 938 -100
1710 -100 1716 0 7 457 10 1371 10 l1371 0 -7 -82z"/>
<path d="M1786 3170 c-39 -12 -64 -37 -75 -76 -11 -42 113 -2183 128 -2212 20
-38 62 -62 105 -62 34 0 49 6 74 31 30 29 32 36 32 98 0 155 -122 2137 -133
2160 -24 48 -82 75 -131 61z"/>
<path d="M2514 3166 c-69 -30 -64 58 -64 -1172 0 -1104 0 -1111 20 -1137 45
-57 144 -53 180 6 19 31 20 60 20 1137 0 1227 5 1136 -66 1166 -41 17 -50 17
-90 0z"/>
<path d="M3273 3173 c-31 -6 -71 -49 -78 -85 -10 -44 -133 -2156 -127 -2184 2
-14 17 -38 32 -54 23 -25 36 -30 73 -30 50 0 92 26 108 67 8 22 128 1980 131
2144 1 80 -16 113 -67 135 -19 8 -38 13 -42 13 -4 -1 -18 -4 -30 -6z"/>
</g>
</svg>
